<svg width="546" height="720" viewBox="0 0 546 720" fill="none" xmlns="http://www.w3.org/2000/svg">
<path d="M48.7031 178H41.6719V163.375H27.9609V178H20.9297V143.875H27.9609V157.703H41.6719V143.875H48.7031V178ZM53.3672 165.086C53.3672 162.57 53.8516 160.328 54.8203 158.359C55.7891 156.391 57.1797 154.867 58.9922 153.789C60.8203 152.711 62.9375 152.172 65.3438 152.172C68.7656 152.172 71.5547 153.219 73.7109 155.312C75.8828 157.406 77.0938 160.25 77.3438 163.844L77.3906 165.578C77.3906 169.469 76.3047 172.594 74.1328 174.953C71.9609 177.297 69.0469 178.469 65.3906 178.469C61.7344 178.469 58.8125 177.297 56.625 174.953C54.4531 172.609 53.3672 169.422 53.3672 165.391V165.086ZM60.1406 165.578C60.1406 167.984 60.5938 169.828 61.5 171.109C62.4062 172.375 63.7031 173.008 65.3906 173.008C67.0312 173.008 68.3125 172.383 69.2344 171.133C70.1562 169.867 70.6172 167.852 70.6172 165.086C70.6172 162.727 70.1562 160.898 69.2344 159.602C68.3125 158.305 67.0156 157.656 65.3438 157.656C63.6875 157.656 62.4062 158.305 61.5 159.602C60.5938 160.883 60.1406 162.875 60.1406 165.578ZM103.617 168.789L106.945 152.641H113.484L107.016 178H101.344L96.5391 162.039L91.7344 178H86.0859L79.6172 152.641H86.1562L89.4609 168.766L94.1016 152.641H99L103.617 168.789ZM129.258 178V143.875H139.758C142.758 143.875 145.438 144.555 147.797 145.914C150.172 147.258 152.023 149.18 153.352 151.68C154.68 154.164 155.344 156.992 155.344 160.164V161.734C155.344 164.906 154.688 167.727 153.375 170.195C152.078 172.664 150.242 174.578 147.867 175.938C145.492 177.297 142.812 177.984 139.828 178H129.258ZM136.289 149.57V172.352H139.688C142.438 172.352 144.539 171.453 145.992 169.656C147.445 167.859 148.188 165.289 148.219 161.945V160.141C148.219 156.672 147.5 154.047 146.062 152.266C144.625 150.469 142.523 149.57 139.758 149.57H136.289ZM158.977 165.086C158.977 162.57 159.461 160.328 160.43 158.359C161.398 156.391 162.789 154.867 164.602 153.789C166.43 152.711 168.547 152.172 170.953 152.172C174.375 152.172 177.164 153.219 179.32 155.312C181.492 157.406 182.703 160.25 182.953 163.844L183 165.578C183 169.469 181.914 172.594 179.742 174.953C177.57 177.297 174.656 178.469 171 178.469C167.344 178.469 164.422 177.297 162.234 174.953C160.062 172.609 158.977 169.422 158.977 165.391V165.086ZM165.75 165.578C165.75 167.984 166.203 169.828 167.109 171.109C168.016 172.375 169.312 173.008 171 173.008C172.641 173.008 173.922 172.383 174.844 171.133C175.766 169.867 176.227 167.852 176.227 165.086C176.227 162.727 175.766 160.898 174.844 159.602C173.922 158.305 172.625 157.656 170.953 157.656C169.297 157.656 168.016 158.305 167.109 159.602C166.203 160.883 165.75 162.875 165.75 165.578ZM198.844 178.469C195.125 178.469 192.094 177.328 189.75 175.047C187.422 172.766 186.258 169.727 186.258 165.93V165.273C186.258 162.727 186.75 160.453 187.734 158.453C188.719 156.438 190.109 154.891 191.906 153.812C193.719 152.719 195.781 152.172 198.094 152.172C201.562 152.172 204.289 153.266 206.273 155.453C208.273 157.641 209.273 160.742 209.273 164.758V167.523H193.125C193.344 169.18 194 170.508 195.094 171.508C196.203 172.508 197.602 173.008 199.289 173.008C201.898 173.008 203.938 172.062 205.406 170.172L208.734 173.898C207.719 175.336 206.344 176.461 204.609 177.273C202.875 178.07 200.953 178.469 198.844 178.469ZM198.07 157.656C196.727 157.656 195.633 158.109 194.789 159.016C193.961 159.922 193.43 161.219 193.195 162.906H202.617V162.367C202.586 160.867 202.18 159.711 201.398 158.898C200.617 158.07 199.508 157.656 198.07 157.656ZM226.875 170.992C226.875 170.164 226.461 169.516 225.633 169.047C224.82 168.562 223.508 168.133 221.695 167.758C215.664 166.492 212.648 163.93 212.648 160.07C212.648 157.82 213.578 155.945 215.438 154.445C217.312 152.93 219.758 152.172 222.773 152.172C225.992 152.172 228.562 152.93 230.484 154.445C232.422 155.961 233.391 157.93 233.391 160.352H226.617C226.617 159.383 226.305 158.586 225.68 157.961C225.055 157.32 224.078 157 222.75 157C221.609 157 220.727 157.258 220.102 157.773C219.477 158.289 219.164 158.945 219.164 159.742C219.164 160.492 219.516 161.102 220.219 161.57C220.938 162.023 222.141 162.422 223.828 162.766C225.516 163.094 226.938 163.469 228.094 163.891C231.672 165.203 233.461 167.477 233.461 170.711C233.461 173.023 232.469 174.898 230.484 176.336C228.5 177.758 225.938 178.469 222.797 178.469C220.672 178.469 218.781 178.094 217.125 177.344C215.484 176.578 214.195 175.539 213.258 174.227C212.32 172.898 211.852 171.469 211.852 169.938H218.273C218.336 171.141 218.781 172.062 219.609 172.703C220.438 173.344 221.547 173.664 222.938 173.664C224.234 173.664 225.211 173.422 225.867 172.938C226.539 172.438 226.875 171.789 226.875 170.992ZM260.93 164.312L257.273 168.25V178H250.242V143.875H257.273V159.344L260.367 155.102L269.062 143.875H277.711L265.594 159.039L278.062 178H269.695L260.93 164.312ZM291.328 178.469C287.609 178.469 284.578 177.328 282.234 175.047C279.906 172.766 278.742 169.727 278.742 165.93V165.273C278.742 162.727 279.234 160.453 280.219 158.453C281.203 156.438 282.594 154.891 284.391 153.812C286.203 152.719 288.266 152.172 290.578 152.172C294.047 152.172 296.773 153.266 298.758 155.453C300.758 157.641 301.758 160.742 301.758 164.758V167.523H285.609C285.828 169.18 286.484 170.508 287.578 171.508C288.688 172.508 290.086 173.008 291.773 173.008C294.383 173.008 296.422 172.062 297.891 170.172L301.219 173.898C300.203 175.336 298.828 176.461 297.094 177.273C295.359 178.07 293.438 178.469 291.328 178.469ZM290.555 157.656C289.211 157.656 288.117 158.109 287.273 159.016C286.445 159.922 285.914 161.219 285.68 162.906H295.102V162.367C295.07 160.867 294.664 159.711 293.883 158.898C293.102 158.07 291.992 157.656 290.555 157.656ZM311.859 152.641L312.07 155.57C313.883 153.305 316.312 152.172 319.359 152.172C322.047 152.172 324.047 152.961 325.359 154.539C326.672 156.117 327.344 158.477 327.375 161.617V178H320.602V161.781C320.602 160.344 320.289 159.305 319.664 158.664C319.039 158.008 318 157.68 316.547 157.68C314.641 157.68 313.211 158.492 312.258 160.117V178H305.484V152.641H311.859ZM331.477 165.133C331.477 161.18 332.359 158.031 334.125 155.688C335.906 153.344 338.336 152.172 341.414 152.172C343.883 152.172 345.922 153.094 347.531 154.938V142H354.328V178H348.211L347.883 175.305C346.195 177.414 344.023 178.469 341.367 178.469C338.383 178.469 335.984 177.297 334.172 174.953C332.375 172.594 331.477 169.32 331.477 165.133ZM338.25 165.625C338.25 168 338.664 169.82 339.492 171.086C340.32 172.352 341.523 172.984 343.102 172.984C345.195 172.984 346.672 172.102 347.531 170.336V160.328C346.688 158.562 345.227 157.68 343.148 157.68C339.883 157.68 338.25 160.328 338.25 165.625ZM358.523 165.086C358.523 162.57 359.008 160.328 359.977 158.359C360.945 156.391 362.336 154.867 364.148 153.789C365.977 152.711 368.094 152.172 370.5 152.172C373.922 152.172 376.711 153.219 378.867 155.312C381.039 157.406 382.25 160.25 382.5 163.844L382.547 165.578C382.547 169.469 381.461 172.594 379.289 174.953C377.117 177.297 374.203 178.469 370.547 178.469C366.891 178.469 363.969 177.297 361.781 174.953C359.609 172.609 358.523 169.422 358.523 165.391V165.086ZM365.297 165.578C365.297 167.984 365.75 169.828 366.656 171.109C367.562 172.375 368.859 173.008 370.547 173.008C372.188 173.008 373.469 172.383 374.391 171.133C375.312 169.867 375.773 167.852 375.773 165.086C375.773 162.727 375.312 160.898 374.391 159.602C373.469 158.305 372.172 157.656 370.5 157.656C368.844 157.656 367.562 158.305 366.656 159.602C365.75 160.883 365.297 162.875 365.297 165.578ZM424.945 143.875V166.352C424.945 170.086 423.773 173.039 421.43 175.211C419.102 177.383 415.914 178.469 411.867 178.469C407.883 178.469 404.719 177.414 402.375 175.305C400.031 173.195 398.836 170.297 398.789 166.609V143.875H405.82V166.398C405.82 168.633 406.352 170.266 407.414 171.297C408.492 172.312 409.977 172.82 411.867 172.82C415.82 172.82 417.828 170.742 417.891 166.586V143.875H424.945ZM438.188 178H431.156V143.875H438.188V178ZM483.469 166.633C483.203 170.305 481.844 173.195 479.391 175.305C476.953 177.414 473.734 178.469 469.734 178.469C465.359 178.469 461.914 177 459.398 174.062C456.898 171.109 455.648 167.062 455.648 161.922V159.836C455.648 156.555 456.227 153.664 457.383 151.164C458.539 148.664 460.188 146.75 462.328 145.422C464.484 144.078 466.984 143.406 469.828 143.406C473.766 143.406 476.938 144.461 479.344 146.57C481.75 148.68 483.141 151.641 483.516 155.453H476.484C476.312 153.25 475.695 151.656 474.633 150.672C473.586 149.672 471.984 149.172 469.828 149.172C467.484 149.172 465.727 150.016 464.555 151.703C463.398 153.375 462.805 155.977 462.773 159.508V162.086C462.773 165.773 463.328 168.469 464.438 170.172C465.562 171.875 467.328 172.727 469.734 172.727C471.906 172.727 473.523 172.234 474.586 171.25C475.664 170.25 476.281 168.711 476.438 166.633H483.469ZM502.828 175.422C501.156 177.453 498.844 178.469 495.891 178.469C493.172 178.469 491.094 177.688 489.656 176.125C488.234 174.562 487.508 172.273 487.477 169.258V152.641H494.25V169.023C494.25 171.664 495.453 172.984 497.859 172.984C500.156 172.984 501.734 172.188 502.594 170.594V152.641H509.391V178H503.016L502.828 175.422ZM522.609 146.406V152.641H526.945V157.609H522.609V170.266C522.609 171.203 522.789 171.875 523.148 172.281C523.508 172.688 524.195 172.891 525.211 172.891C525.961 172.891 526.625 172.836 527.203 172.727V177.859C525.875 178.266 524.508 178.469 523.102 178.469C518.352 178.469 515.93 176.07 515.836 171.273V157.609H512.133V152.641H515.836V146.406H522.609ZM61.6172 245V210.875H72.1172C75.1172 210.875 77.7969 211.555 80.1562 212.914C82.5312 214.258 84.3828 216.18 85.7109 218.68C87.0391 221.164 87.7031 223.992 87.7031 227.164V228.734C87.7031 231.906 87.0469 234.727 85.7344 237.195C84.4375 239.664 82.6016 241.578 80.2266 242.938C77.8516 244.297 75.1719 244.984 72.1875 245H61.6172ZM68.6484 216.57V239.352H72.0469C74.7969 239.352 76.8984 238.453 78.3516 236.656C79.8047 234.859 80.5469 232.289 80.5781 228.945V227.141C80.5781 223.672 79.8594 221.047 78.4219 219.266C76.9844 217.469 74.8828 216.57 72.1172 216.57H68.6484ZM104.062 245.469C100.344 245.469 97.3125 244.328 94.9688 242.047C92.6406 239.766 91.4766 236.727 91.4766 232.93V232.273C91.4766 229.727 91.9688 227.453 92.9531 225.453C93.9375 223.438 95.3281 221.891 97.125 220.812C98.9375 219.719 101 219.172 103.312 219.172C106.781 219.172 109.508 220.266 111.492 222.453C113.492 224.641 114.492 227.742 114.492 231.758V234.523H98.3438C98.5625 236.18 99.2188 237.508 100.312 238.508C101.422 239.508 102.82 240.008 104.508 240.008C107.117 240.008 109.156 239.062 110.625 237.172L113.953 240.898C112.938 242.336 111.562 243.461 109.828 244.273C108.094 245.07 106.172 245.469 104.062 245.469ZM103.289 224.656C101.945 224.656 100.852 225.109 100.008 226.016C99.1797 226.922 98.6484 228.219 98.4141 229.906H107.836V229.367C107.805 227.867 107.398 226.711 106.617 225.898C105.836 225.07 104.727 224.656 103.289 224.656ZM127.523 236.727L132.234 219.641H139.312L130.758 245H124.289L115.734 219.641H122.812L127.523 236.727ZM153.656 245.469C149.938 245.469 146.906 244.328 144.562 242.047C142.234 239.766 141.07 236.727 141.07 232.93V232.273C141.07 229.727 141.562 227.453 142.547 225.453C143.531 223.438 144.922 221.891 146.719 220.812C148.531 219.719 150.594 219.172 152.906 219.172C156.375 219.172 159.102 220.266 161.086 222.453C163.086 224.641 164.086 227.742 164.086 231.758V234.523H147.938C148.156 236.18 148.812 237.508 149.906 238.508C151.016 239.508 152.414 240.008 154.102 240.008C156.711 240.008 158.75 239.062 160.219 237.172L163.547 240.898C162.531 242.336 161.156 243.461 159.422 244.273C157.688 245.07 155.766 245.469 153.656 245.469ZM152.883 224.656C151.539 224.656 150.445 225.109 149.602 226.016C148.773 226.922 148.242 228.219 148.008 229.906H157.43V229.367C157.398 227.867 156.992 226.711 156.211 225.898C155.43 225.07 154.32 224.656 152.883 224.656ZM175.102 245H168.305V209H175.102V245ZM179.648 232.086C179.648 229.57 180.133 227.328 181.102 225.359C182.07 223.391 183.461 221.867 185.273 220.789C187.102 219.711 189.219 219.172 191.625 219.172C195.047 219.172 197.836 220.219 199.992 222.312C202.164 224.406 203.375 227.25 203.625 230.844L203.672 232.578C203.672 236.469 202.586 239.594 200.414 241.953C198.242 244.297 195.328 245.469 191.672 245.469C188.016 245.469 185.094 244.297 182.906 241.953C180.734 239.609 179.648 236.422 179.648 232.391V232.086ZM186.422 232.578C186.422 234.984 186.875 236.828 187.781 238.109C188.688 239.375 189.984 240.008 191.672 240.008C193.312 240.008 194.594 239.383 195.516 238.133C196.438 236.867 196.898 234.852 196.898 232.086C196.898 229.727 196.438 227.898 195.516 226.602C194.594 225.305 193.297 224.656 191.625 224.656C189.969 224.656 188.688 225.305 187.781 226.602C186.875 227.883 186.422 229.875 186.422 232.578ZM230.672 232.555C230.672 236.461 229.781 239.594 228 241.953C226.234 244.297 223.844 245.469 220.828 245.469C218.266 245.469 216.195 244.578 214.617 242.797V254.75H207.844V219.641H214.125L214.359 222.125C216 220.156 218.141 219.172 220.781 219.172C223.906 219.172 226.336 220.328 228.07 222.641C229.805 224.953 230.672 228.141 230.672 232.203V232.555ZM223.898 232.062C223.898 229.703 223.477 227.883 222.633 226.602C221.805 225.32 220.594 224.68 219 224.68C216.875 224.68 215.414 225.492 214.617 227.117V237.5C215.445 239.172 216.922 240.008 219.047 240.008C222.281 240.008 223.898 237.359 223.898 232.062ZM241.242 219.641L241.453 222.477C243.25 220.273 245.68 219.172 248.742 219.172C252.008 219.172 254.25 220.461 255.469 223.039C257.25 220.461 259.789 219.172 263.086 219.172C265.836 219.172 267.883 219.977 269.227 221.586C270.57 223.18 271.242 225.586 271.242 228.805V245H264.445V228.828C264.445 227.391 264.164 226.344 263.602 225.688C263.039 225.016 262.047 224.68 260.625 224.68C258.594 224.68 257.188 225.648 256.406 227.586L256.43 245H249.656V228.852C249.656 227.383 249.367 226.32 248.789 225.664C248.211 225.008 247.227 224.68 245.836 224.68C243.914 224.68 242.523 225.477 241.664 227.07V245H234.891V219.641H241.242ZM288.141 245.469C284.422 245.469 281.391 244.328 279.047 242.047C276.719 239.766 275.555 236.727 275.555 232.93V232.273C275.555 229.727 276.047 227.453 277.031 225.453C278.016 223.438 279.406 221.891 281.203 220.812C283.016 219.719 285.078 219.172 287.391 219.172C290.859 219.172 293.586 220.266 295.57 222.453C297.57 224.641 298.57 227.742 298.57 231.758V234.523H282.422C282.641 236.18 283.297 237.508 284.391 238.508C285.5 239.508 286.898 240.008 288.586 240.008C291.195 240.008 293.234 239.062 294.703 237.172L298.031 240.898C297.016 242.336 295.641 243.461 293.906 244.273C292.172 245.07 290.25 245.469 288.141 245.469ZM287.367 224.656C286.023 224.656 284.93 225.109 284.086 226.016C283.258 226.922 282.727 228.219 282.492 229.906H291.914V229.367C291.883 227.867 291.477 226.711 290.695 225.898C289.914 225.07 288.805 224.656 287.367 224.656ZM308.672 219.641L308.883 222.57C310.695 220.305 313.125 219.172 316.172 219.172C318.859 219.172 320.859 219.961 322.172 221.539C323.484 223.117 324.156 225.477 324.188 228.617V245H317.414V228.781C317.414 227.344 317.102 226.305 316.477 225.664C315.852 225.008 314.812 224.68 313.359 224.68C311.453 224.68 310.023 225.492 309.07 227.117V245H302.297V219.641H308.672ZM337.453 213.406V219.641H341.789V224.609H337.453V237.266C337.453 238.203 337.633 238.875 337.992 239.281C338.352 239.688 339.039 239.891 340.055 239.891C340.805 239.891 341.469 239.836 342.047 239.727V244.859C340.719 245.266 339.352 245.469 337.945 245.469C333.195 245.469 330.773 243.07 330.68 238.273V224.609H326.977V219.641H330.68V213.406H337.453ZM382.242 216.57H371.789V245H364.758V216.57H354.445V210.875H382.242V216.57ZM392.977 245H386.18V219.641H392.977V245ZM385.781 213.078C385.781 212.062 386.117 211.227 386.789 210.57C387.477 209.914 388.406 209.586 389.578 209.586C390.734 209.586 391.656 209.914 392.344 210.57C393.031 211.227 393.375 212.062 393.375 213.078C393.375 214.109 393.023 214.953 392.32 215.609C391.633 216.266 390.719 216.594 389.578 216.594C388.438 216.594 387.516 216.266 386.812 215.609C386.125 214.953 385.781 214.109 385.781 213.078ZM404.93 219.641L405.141 222.477C406.938 220.273 409.367 219.172 412.43 219.172C415.695 219.172 417.938 220.461 419.156 223.039C420.938 220.461 423.477 219.172 426.773 219.172C429.523 219.172 431.57 219.977 432.914 221.586C434.258 223.18 434.93 225.586 434.93 228.805V245H428.133V228.828C428.133 227.391 427.852 226.344 427.289 225.688C426.727 225.016 425.734 224.68 424.312 224.68C422.281 224.68 420.875 225.648 420.094 227.586L420.117 245H413.344V228.852C413.344 227.383 413.055 226.32 412.477 225.664C411.898 225.008 410.914 224.68 409.523 224.68C407.602 224.68 406.211 225.477 405.352 227.07V245H398.578V219.641H404.93ZM451.828 245.469C448.109 245.469 445.078 244.328 442.734 242.047C440.406 239.766 439.242 236.727 439.242 232.93V232.273C439.242 229.727 439.734 227.453 440.719 225.453C441.703 223.438 443.094 221.891 444.891 220.812C446.703 219.719 448.766 219.172 451.078 219.172C454.547 219.172 457.273 220.266 459.258 222.453C461.258 224.641 462.258 227.742 462.258 231.758V234.523H446.109C446.328 236.18 446.984 237.508 448.078 238.508C449.188 239.508 450.586 240.008 452.273 240.008C454.883 240.008 456.922 239.062 458.391 237.172L461.719 240.898C460.703 242.336 459.328 243.461 457.594 244.273C455.859 245.07 453.938 245.469 451.828 245.469ZM451.055 224.656C449.711 224.656 448.617 225.109 447.773 226.016C446.945 226.922 446.414 228.219 446.18 229.906H455.602V229.367C455.57 227.867 455.164 226.711 454.383 225.898C453.602 225.07 452.492 224.656 451.055 224.656ZM471.656 234.523C471.656 232.336 471.922 230.594 472.453 229.297C472.984 228 473.953 226.727 475.359 225.477C476.781 224.211 477.727 223.188 478.195 222.406C478.664 221.609 478.898 220.773 478.898 219.898C478.898 217.258 477.68 215.938 475.242 215.938C474.086 215.938 473.156 216.297 472.453 217.016C471.766 217.719 471.406 218.695 471.375 219.945H464.578C464.609 216.961 465.57 214.625 467.461 212.938C469.367 211.25 471.961 210.406 475.242 210.406C478.555 210.406 481.125 211.211 482.953 212.82C484.781 214.414 485.695 216.672 485.695 219.594C485.695 220.922 485.398 222.18 484.805 223.367C484.211 224.539 483.172 225.844 481.688 227.281L479.789 229.086C478.602 230.227 477.922 231.562 477.75 233.094L477.656 234.523H471.656ZM470.977 241.719C470.977 240.672 471.328 239.812 472.031 239.141C472.75 238.453 473.664 238.109 474.773 238.109C475.883 238.109 476.789 238.453 477.492 239.141C478.211 239.812 478.57 240.672 478.57 241.719C478.57 242.75 478.219 243.602 477.516 244.273C476.828 244.945 475.914 245.281 474.773 245.281C473.633 245.281 472.711 244.945 472.008 244.273C471.32 243.602 470.977 242.75 470.977 241.719Z" fill="white"/>
<path d="M47.9873 320.719L46.3359 322.436V327H44.5547V313.492H46.3359V320.172L52.3384 313.492H54.4907L49.1748 319.458L54.9082 327H52.7744L47.9873 320.719ZM60.1221 327.186C58.7614 327.186 57.6543 326.74 56.8008 325.85C55.9473 324.953 55.5205 323.756 55.5205 322.259V321.944C55.5205 320.948 55.7091 320.061 56.0864 319.281C56.4699 318.496 57.0018 317.883 57.6821 317.444C58.3687 316.999 59.1108 316.776 59.9087 316.776C61.2137 316.776 62.228 317.206 62.9517 318.066C63.6753 318.926 64.0371 320.156 64.0371 321.758V322.473H57.2368C57.2616 323.462 57.5492 324.263 58.0996 324.875C58.6562 325.482 59.3613 325.785 60.2148 325.785C60.821 325.785 61.3343 325.661 61.7549 325.414C62.1755 325.166 62.5435 324.838 62.8589 324.43L63.9072 325.247C63.0661 326.539 61.8044 327.186 60.1221 327.186ZM59.9087 318.187C59.216 318.187 58.6346 318.44 58.1646 318.947C57.6945 319.448 57.4038 320.153 57.2925 321.062H62.3208V320.933C62.2713 320.061 62.0363 319.386 61.6157 318.91C61.1951 318.428 60.6261 318.187 59.9087 318.187ZM67.6553 316.962L67.7109 318.224C68.4779 317.259 69.4798 316.776 70.7168 316.776C72.8382 316.776 73.9082 317.973 73.9268 320.367V327H72.2104V320.357C72.2043 319.634 72.0373 319.099 71.7095 318.752C71.3879 318.406 70.8838 318.233 70.1973 318.233C69.6406 318.233 69.152 318.381 68.7314 318.678C68.3109 318.975 67.9831 319.365 67.748 319.847V327H66.0317V316.962H67.6553ZM76.0977 321.897C76.0977 320.357 76.4626 319.12 77.1924 318.187C77.9222 317.246 78.8778 316.776 80.0591 316.776C81.2342 316.776 82.165 317.178 82.8516 317.982V312.75H84.5679V327H82.9907L82.9072 325.924C82.2207 326.765 81.2651 327.186 80.0405 327.186C78.8778 327.186 77.9284 326.709 77.1924 325.757C76.4626 324.804 76.0977 323.561 76.0977 322.027V321.897ZM77.814 322.092C77.814 323.23 78.049 324.121 78.519 324.764C78.9891 325.407 79.6385 325.729 80.4673 325.729C81.5558 325.729 82.3506 325.24 82.8516 324.263V319.652C82.3382 318.706 81.5496 318.233 80.4858 318.233C79.6447 318.233 78.9891 318.558 78.519 319.207C78.049 319.856 77.814 320.818 77.814 322.092ZM86.7852 321.888C86.7852 320.905 86.9769 320.02 87.3604 319.235C87.75 318.449 88.2881 317.843 88.9746 317.417C89.6673 316.99 90.4559 316.776 91.3403 316.776C92.7072 316.776 93.8112 317.25 94.6523 318.196C95.4997 319.142 95.9233 320.401 95.9233 321.972V322.092C95.9233 323.069 95.7347 323.948 95.3574 324.727C94.9863 325.5 94.4513 326.103 93.7524 326.536C93.0597 326.969 92.2619 327.186 91.3589 327.186C89.9982 327.186 88.8942 326.712 88.0469 325.766C87.2057 324.82 86.7852 323.567 86.7852 322.009V321.888ZM88.5107 322.092C88.5107 323.206 88.7674 324.099 89.2808 324.773C89.8003 325.448 90.493 325.785 91.3589 325.785C92.231 325.785 92.9237 325.444 93.437 324.764C93.9504 324.078 94.207 323.119 94.207 321.888C94.207 320.787 93.9442 319.897 93.4185 319.216C92.8989 318.53 92.2062 318.187 91.3403 318.187C90.493 318.187 89.8096 318.524 89.29 319.198C88.7705 319.872 88.5107 320.837 88.5107 322.092ZM112.567 313.492V322.677C112.561 323.951 112.159 324.993 111.361 325.803C110.569 326.613 109.493 327.068 108.132 327.167L107.659 327.186C106.181 327.186 105.003 326.787 104.125 325.989C103.246 325.191 102.801 324.093 102.789 322.695V313.492H104.551V322.64C104.551 323.617 104.82 324.378 105.358 324.922C105.896 325.46 106.663 325.729 107.659 325.729C108.667 325.729 109.437 325.46 109.969 324.922C110.507 324.384 110.776 323.626 110.776 322.649V313.492H112.567ZM117.289 327H115.508V313.492H117.289V327ZM124.581 321.897C124.581 320.357 124.946 319.12 125.676 318.187C126.406 317.246 127.361 316.776 128.542 316.776C129.718 316.776 130.648 317.178 131.335 317.982V312.75H133.051V327H131.474L131.391 325.924C130.704 326.765 129.749 327.186 128.524 327.186C127.361 327.186 126.412 326.709 125.676 325.757C124.946 324.804 124.581 323.561 124.581 322.027V321.897ZM126.297 322.092C126.297 323.23 126.532 324.121 127.002 324.764C127.472 325.407 128.122 325.729 128.951 325.729C130.039 325.729 130.834 325.24 131.335 324.263V319.652C130.822 318.706 130.033 318.233 128.969 318.233C128.128 318.233 127.472 318.558 127.002 319.207C126.532 319.856 126.297 320.818 126.297 322.092ZM139.889 327.186C138.528 327.186 137.421 326.74 136.567 325.85C135.714 324.953 135.287 323.756 135.287 322.259V321.944C135.287 320.948 135.476 320.061 135.853 319.281C136.236 318.496 136.768 317.883 137.449 317.444C138.135 316.999 138.877 316.776 139.675 316.776C140.98 316.776 141.995 317.206 142.718 318.066C143.442 318.926 143.804 320.156 143.804 321.758V322.473H137.003C137.028 323.462 137.316 324.263 137.866 324.875C138.423 325.482 139.128 325.785 139.981 325.785C140.588 325.785 141.101 325.661 141.521 325.414C141.942 325.166 142.31 324.838 142.625 324.43L143.674 325.247C142.833 326.539 141.571 327.186 139.889 327.186ZM139.675 318.187C138.983 318.187 138.401 318.44 137.931 318.947C137.461 319.448 137.17 320.153 137.059 321.062H142.087V320.933C142.038 320.061 141.803 319.386 141.382 318.91C140.962 318.428 140.393 318.187 139.675 318.187ZM147.663 327H145.947V312.75H147.663V327ZM152.283 327H150.567V316.962H152.283V327ZM150.428 314.299C150.428 314.021 150.511 313.786 150.678 313.594C150.851 313.403 151.105 313.307 151.439 313.307C151.773 313.307 152.027 313.403 152.2 313.594C152.373 313.786 152.459 314.021 152.459 314.299C152.459 314.578 152.373 314.81 152.2 314.995C152.027 315.181 151.773 315.273 151.439 315.273C151.105 315.273 150.851 315.181 150.678 314.995C150.511 314.81 150.428 314.578 150.428 314.299ZM158.351 324.671L160.837 316.962H162.59L158.991 327H157.683L154.046 316.962H155.799L158.351 324.671ZM168.277 327.186C166.917 327.186 165.81 326.74 164.956 325.85C164.103 324.953 163.676 323.756 163.676 322.259V321.944C163.676 320.948 163.864 320.061 164.242 319.281C164.625 318.496 165.157 317.883 165.837 317.444C166.524 316.999 167.266 316.776 168.064 316.776C169.369 316.776 170.383 317.206 171.107 318.066C171.831 318.926 172.192 320.156 172.192 321.758V322.473H165.392C165.417 323.462 165.704 324.263 166.255 324.875C166.812 325.482 167.517 325.785 168.37 325.785C168.976 325.785 169.49 325.661 169.91 325.414C170.331 325.166 170.699 324.838 171.014 324.43L172.062 325.247C171.221 326.539 169.96 327.186 168.277 327.186ZM168.064 318.187C167.371 318.187 166.79 318.44 166.32 318.947C165.85 319.448 165.559 320.153 165.448 321.062H170.476V320.933C170.427 320.061 170.192 319.386 169.771 318.91C169.35 318.428 168.781 318.187 168.064 318.187ZM179.039 318.502C178.779 318.459 178.498 318.437 178.195 318.437C177.069 318.437 176.305 318.916 175.903 319.875V327H174.187V316.962H175.857L175.885 318.122C176.448 317.225 177.245 316.776 178.278 316.776C178.612 316.776 178.866 316.82 179.039 316.906V318.502ZM186.47 324.337C186.47 323.874 186.294 323.515 185.941 323.261C185.595 323.001 184.986 322.779 184.114 322.593C183.248 322.408 182.558 322.185 182.045 321.925C181.538 321.666 181.16 321.356 180.913 320.998C180.672 320.639 180.551 320.212 180.551 319.717C180.551 318.895 180.898 318.199 181.59 317.63C182.289 317.061 183.18 316.776 184.262 316.776C185.4 316.776 186.322 317.07 187.027 317.658C187.738 318.245 188.094 318.997 188.094 319.912H186.368C186.368 319.442 186.167 319.037 185.765 318.697C185.369 318.357 184.868 318.187 184.262 318.187C183.638 318.187 183.149 318.323 182.796 318.595C182.444 318.867 182.268 319.222 182.268 319.662C182.268 320.076 182.431 320.388 182.759 320.599C183.087 320.809 183.678 321.01 184.531 321.202C185.391 321.393 186.087 321.622 186.619 321.888C187.151 322.154 187.543 322.476 187.797 322.853C188.057 323.224 188.187 323.679 188.187 324.217C188.187 325.114 187.828 325.834 187.11 326.378C186.393 326.917 185.462 327.186 184.318 327.186C183.514 327.186 182.803 327.043 182.184 326.759C181.566 326.474 181.08 326.078 180.728 325.571C180.381 325.058 180.208 324.504 180.208 323.911H181.924C181.955 324.486 182.184 324.944 182.611 325.284C183.044 325.618 183.613 325.785 184.318 325.785C184.967 325.785 185.487 325.655 185.876 325.395C186.272 325.129 186.47 324.777 186.47 324.337ZM199.301 327.186C197.94 327.186 196.833 326.74 195.979 325.85C195.126 324.953 194.699 323.756 194.699 322.259V321.944C194.699 320.948 194.888 320.061 195.265 319.281C195.649 318.496 196.181 317.883 196.861 317.444C197.547 316.999 198.29 316.776 199.087 316.776C200.392 316.776 201.407 317.206 202.13 318.066C202.854 318.926 203.216 320.156 203.216 321.758V322.473H196.416C196.44 323.462 196.728 324.263 197.278 324.875C197.835 325.482 198.54 325.785 199.394 325.785C200 325.785 200.513 325.661 200.934 325.414C201.354 325.166 201.722 324.838 202.038 324.43L203.086 325.247C202.245 326.539 200.983 327.186 199.301 327.186ZM199.087 318.187C198.395 318.187 197.813 318.44 197.343 318.947C196.873 319.448 196.583 320.153 196.471 321.062H201.5V320.933C201.45 320.061 201.215 319.386 200.794 318.91C200.374 318.428 199.805 318.187 199.087 318.187ZM208.393 324.671L210.879 316.962H212.632L209.033 327H207.725L204.088 316.962H205.841L208.393 324.671ZM218.319 327.186C216.959 327.186 215.852 326.74 214.998 325.85C214.145 324.953 213.718 323.756 213.718 322.259V321.944C213.718 320.948 213.906 320.061 214.284 319.281C214.667 318.496 215.199 317.883 215.879 317.444C216.566 316.999 217.308 316.776 218.106 316.776C219.411 316.776 220.425 317.206 221.149 318.066C221.873 318.926 222.234 320.156 222.234 321.758V322.473H215.434C215.459 323.462 215.746 324.263 216.297 324.875C216.854 325.482 217.559 325.785 218.412 325.785C219.018 325.785 219.532 325.661 219.952 325.414C220.373 325.166 220.741 324.838 221.056 324.43L222.104 325.247C221.263 326.539 220.002 327.186 218.319 327.186ZM218.106 318.187C217.413 318.187 216.832 318.44 216.362 318.947C215.892 319.448 215.601 320.153 215.49 321.062H220.518V320.933C220.469 320.061 220.234 319.386 219.813 318.91C219.392 318.428 218.823 318.187 218.106 318.187ZM229.081 318.502C228.821 318.459 228.54 318.437 228.237 318.437C227.111 318.437 226.347 318.916 225.945 319.875V327H224.229V316.962H225.899L225.927 318.122C226.49 317.225 227.287 316.776 228.32 316.776C228.654 316.776 228.908 316.82 229.081 316.906V318.502ZM234.119 324.486L236.457 316.962H238.293L234.258 328.549C233.633 330.219 232.64 331.054 231.28 331.054L230.955 331.026L230.315 330.906V329.514L230.779 329.551C231.36 329.551 231.812 329.434 232.133 329.199C232.461 328.964 232.73 328.534 232.94 327.909L233.321 326.889L229.74 316.962H231.614L234.119 324.486ZM242.162 314.531V316.962H244.036V318.289H242.162V324.514C242.162 324.916 242.246 325.219 242.413 325.423C242.58 325.621 242.864 325.72 243.266 325.72C243.464 325.72 243.736 325.683 244.083 325.608V327C243.631 327.124 243.192 327.186 242.765 327.186C241.998 327.186 241.42 326.954 241.03 326.49C240.641 326.026 240.446 325.367 240.446 324.514V318.289H238.618V316.962H240.446V314.531H242.162ZM247.766 318.177C248.526 317.243 249.516 316.776 250.734 316.776C252.856 316.776 253.926 317.973 253.944 320.367V327H252.228V320.357C252.222 319.634 252.055 319.099 251.727 318.752C251.405 318.406 250.901 318.233 250.215 318.233C249.658 318.233 249.17 318.381 248.749 318.678C248.328 318.975 248.001 319.365 247.766 319.847V327H246.049V312.75H247.766V318.177ZM258.379 327H256.663V316.962H258.379V327ZM256.523 314.299C256.523 314.021 256.607 313.786 256.774 313.594C256.947 313.403 257.201 313.307 257.535 313.307C257.869 313.307 258.122 313.403 258.295 313.594C258.469 313.786 258.555 314.021 258.555 314.299C258.555 314.578 258.469 314.81 258.295 314.995C258.122 315.181 257.869 315.273 257.535 315.273C257.201 315.273 256.947 315.181 256.774 314.995C256.607 314.81 256.523 314.578 256.523 314.299ZM262.758 316.962L262.813 318.224C263.58 317.259 264.582 316.776 265.819 316.776C267.941 316.776 269.011 317.973 269.029 320.367V327H267.313V320.357C267.307 319.634 267.14 319.099 266.812 318.752C266.49 318.406 265.986 318.233 265.3 318.233C264.743 318.233 264.255 318.381 263.834 318.678C263.413 318.975 263.086 319.365 262.851 319.847V327H261.134V316.962H262.758ZM271.209 321.897C271.209 320.333 271.571 319.09 272.295 318.168C273.019 317.24 273.977 316.776 275.171 316.776C276.396 316.776 277.351 317.209 278.038 318.075L278.121 316.962H279.689V326.759C279.689 328.058 279.302 329.081 278.529 329.83C277.762 330.578 276.729 330.952 275.431 330.952C274.707 330.952 273.999 330.798 273.306 330.488C272.613 330.179 272.085 329.755 271.72 329.217L272.61 328.188C273.346 329.097 274.246 329.551 275.31 329.551C276.145 329.551 276.794 329.316 277.258 328.846C277.728 328.376 277.963 327.714 277.963 326.861V325.998C277.277 326.79 276.34 327.186 275.152 327.186C273.977 327.186 273.025 326.712 272.295 325.766C271.571 324.82 271.209 323.53 271.209 321.897ZM272.935 322.092C272.935 323.224 273.167 324.115 273.631 324.764C274.095 325.407 274.744 325.729 275.579 325.729C276.661 325.729 277.456 325.237 277.963 324.254V319.671C277.438 318.712 276.649 318.233 275.598 318.233C274.763 318.233 274.11 318.558 273.64 319.207C273.17 319.856 272.935 320.818 272.935 322.092ZM290.284 324.486L292.622 316.962H294.458L290.423 328.549C289.798 330.219 288.806 331.054 287.445 331.054L287.12 331.026L286.48 330.906V329.514L286.944 329.551C287.525 329.551 287.977 329.434 288.298 329.199C288.626 328.964 288.895 328.534 289.105 327.909L289.486 326.889L285.905 316.962H287.779L290.284 324.486ZM295.396 321.888C295.396 320.905 295.587 320.02 295.971 319.235C296.36 318.449 296.898 317.843 297.585 317.417C298.278 316.99 299.066 316.776 299.951 316.776C301.318 316.776 302.422 317.25 303.263 318.196C304.11 319.142 304.534 320.401 304.534 321.972V322.092C304.534 323.069 304.345 323.948 303.968 324.727C303.597 325.5 303.062 326.103 302.363 326.536C301.67 326.969 300.872 327.186 299.969 327.186C298.609 327.186 297.505 326.712 296.657 325.766C295.816 324.82 295.396 323.567 295.396 322.009V321.888ZM297.121 322.092C297.121 323.206 297.378 324.099 297.891 324.773C298.411 325.448 299.103 325.785 299.969 325.785C300.841 325.785 301.534 325.444 302.047 324.764C302.561 324.078 302.817 323.119 302.817 321.888C302.817 320.787 302.555 319.897 302.029 319.216C301.509 318.53 300.817 318.187 299.951 318.187C299.103 318.187 298.42 318.524 297.9 319.198C297.381 319.872 297.121 320.837 297.121 322.092ZM312.883 326.007C312.215 326.793 311.235 327.186 309.942 327.186C308.872 327.186 308.056 326.876 307.493 326.258C306.937 325.633 306.655 324.712 306.649 323.493V316.962H308.365V323.447C308.365 324.968 308.984 325.729 310.221 325.729C311.532 325.729 312.404 325.24 312.837 324.263V316.962H314.553V327H312.92L312.883 326.007ZM323.506 316.962L323.562 318.224C324.328 317.259 325.33 316.776 326.567 316.776C328.689 316.776 329.759 317.973 329.777 320.367V327H328.061V320.357C328.055 319.634 327.888 319.099 327.56 318.752C327.238 318.406 326.734 318.233 326.048 318.233C325.491 318.233 325.003 318.381 324.582 318.678C324.161 318.975 323.834 319.365 323.599 319.847V327H321.882V316.962H323.506ZM336.531 327.186C335.171 327.186 334.063 326.74 333.21 325.85C332.356 324.953 331.93 323.756 331.93 322.259V321.944C331.93 320.948 332.118 320.061 332.496 319.281C332.879 318.496 333.411 317.883 334.091 317.444C334.778 316.999 335.52 316.776 336.318 316.776C337.623 316.776 338.637 317.206 339.361 318.066C340.084 318.926 340.446 320.156 340.446 321.758V322.473H333.646C333.671 323.462 333.958 324.263 334.509 324.875C335.065 325.482 335.771 325.785 336.624 325.785C337.23 325.785 337.743 325.661 338.164 325.414C338.585 325.166 338.953 324.838 339.268 324.43L340.316 325.247C339.475 326.539 338.214 327.186 336.531 327.186ZM336.318 318.187C335.625 318.187 335.044 318.44 334.574 318.947C334.104 319.448 333.813 320.153 333.702 321.062H338.73V320.933C338.681 320.061 338.445 319.386 338.025 318.91C337.604 318.428 337.035 318.187 336.318 318.187ZM346.606 327.186C345.246 327.186 344.139 326.74 343.285 325.85C342.432 324.953 342.005 323.756 342.005 322.259V321.944C342.005 320.948 342.194 320.061 342.571 319.281C342.954 318.496 343.486 317.883 344.167 317.444C344.853 316.999 345.595 316.776 346.393 316.776C347.698 316.776 348.712 317.206 349.436 318.066C350.16 318.926 350.521 320.156 350.521 321.758V322.473H343.721C343.746 323.462 344.034 324.263 344.584 324.875C345.141 325.482 345.846 325.785 346.699 325.785C347.305 325.785 347.819 325.661 348.239 325.414C348.66 325.166 349.028 324.838 349.343 324.43L350.392 325.247C349.55 326.539 348.289 327.186 346.606 327.186ZM346.393 318.187C345.7 318.187 345.119 318.44 344.649 318.947C344.179 319.448 343.888 320.153 343.777 321.062H348.805V320.933C348.756 320.061 348.521 319.386 348.1 318.91C347.68 318.428 347.111 318.187 346.393 318.187ZM352.099 321.897C352.099 320.357 352.464 319.12 353.193 318.187C353.923 317.246 354.879 316.776 356.06 316.776C357.235 316.776 358.166 317.178 358.853 317.982V312.75H360.569V327H358.992L358.908 325.924C358.222 326.765 357.266 327.186 356.042 327.186C354.879 327.186 353.929 326.709 353.193 325.757C352.464 324.804 352.099 323.561 352.099 322.027V321.897ZM353.815 322.092C353.815 323.23 354.05 324.121 354.52 324.764C354.99 325.407 355.639 325.729 356.468 325.729C357.557 325.729 358.352 325.24 358.853 324.263V319.652C358.339 318.706 357.551 318.233 356.487 318.233C355.646 318.233 354.99 318.558 354.52 319.207C354.05 319.856 353.815 320.818 353.815 322.092ZM370.282 314.531V316.962H372.156V318.289H370.282V324.514C370.282 324.916 370.366 325.219 370.533 325.423C370.7 325.621 370.984 325.72 371.386 325.72C371.584 325.72 371.856 325.683 372.203 325.608V327C371.751 327.124 371.312 327.186 370.885 327.186C370.118 327.186 369.54 326.954 369.15 326.49C368.761 326.026 368.566 325.367 368.566 324.514V318.289H366.738V316.962H368.566V314.531H370.282ZM373.529 321.888C373.529 320.905 373.721 320.02 374.104 319.235C374.494 318.449 375.032 317.843 375.719 317.417C376.411 316.99 377.2 316.776 378.084 316.776C379.451 316.776 380.555 317.25 381.396 318.196C382.244 319.142 382.667 320.401 382.667 321.972V322.092C382.667 323.069 382.479 323.948 382.102 324.727C381.73 325.5 381.195 326.103 380.497 326.536C379.804 326.969 379.006 327.186 378.103 327.186C376.742 327.186 375.638 326.712 374.791 325.766C373.95 324.82 373.529 323.567 373.529 322.009V321.888ZM375.255 322.092C375.255 323.206 375.512 324.099 376.025 324.773C376.544 325.448 377.237 325.785 378.103 325.785C378.975 325.785 379.668 325.444 380.181 324.764C380.694 324.078 380.951 323.119 380.951 321.888C380.951 320.787 380.688 319.897 380.163 319.216C379.643 318.53 378.95 318.187 378.084 318.187C377.237 318.187 376.554 318.524 376.034 319.198C375.515 319.872 375.255 320.837 375.255 322.092ZM398.031 322.092C398.031 323.626 397.678 324.86 396.973 325.794C396.268 326.722 395.322 327.186 394.134 327.186C392.866 327.186 391.886 326.737 391.193 325.84L391.11 327H389.533V312.75H391.249V318.066C391.942 317.206 392.897 316.776 394.116 316.776C395.334 316.776 396.29 317.237 396.982 318.159C397.681 319.08 398.031 320.342 398.031 321.944V322.092ZM396.314 321.897C396.314 320.729 396.089 319.826 395.637 319.188C395.186 318.551 394.536 318.233 393.689 318.233C392.557 318.233 391.744 318.759 391.249 319.81V324.152C391.775 325.203 392.594 325.729 393.708 325.729C394.53 325.729 395.17 325.41 395.628 324.773C396.086 324.136 396.314 323.178 396.314 321.897ZM406.399 326.007C405.731 326.793 404.751 327.186 403.458 327.186C402.388 327.186 401.572 326.876 401.009 326.258C400.452 325.633 400.171 324.712 400.165 323.493V316.962H401.881V323.447C401.881 324.968 402.499 325.729 403.736 325.729C405.048 325.729 405.92 325.24 406.353 324.263V316.962H408.069V327H406.436L406.399 326.007ZM412.55 327H410.833V316.962H412.55V327ZM410.694 314.299C410.694 314.021 410.778 313.786 410.945 313.594C411.118 313.403 411.372 313.307 411.706 313.307C412.04 313.307 412.293 313.403 412.466 313.594C412.639 313.786 412.726 314.021 412.726 314.299C412.726 314.578 412.639 314.81 412.466 314.995C412.293 315.181 412.04 315.273 411.706 315.273C411.372 315.273 411.118 315.181 410.945 314.995C410.778 314.81 410.694 314.578 410.694 314.299ZM417.17 327H415.454V312.75H417.17V327ZM419.508 321.897C419.508 320.357 419.873 319.12 420.603 318.187C421.332 317.246 422.288 316.776 423.469 316.776C424.644 316.776 425.575 317.178 426.262 317.982V312.75H427.978V327H426.401L426.317 325.924C425.631 326.765 424.675 327.186 423.451 327.186C422.288 327.186 421.339 326.709 420.603 325.757C419.873 324.804 419.508 323.561 419.508 322.027V321.897ZM421.224 322.092C421.224 323.23 421.459 324.121 421.929 324.764C422.399 325.407 423.049 325.729 423.877 325.729C424.966 325.729 425.761 325.24 426.262 324.263V319.652C425.748 318.706 424.96 318.233 423.896 318.233C423.055 318.233 422.399 318.558 421.929 319.207C421.459 319.856 421.224 320.818 421.224 322.092ZM436.977 316.962L437.023 318.075C437.759 317.209 438.752 316.776 440.001 316.776C441.405 316.776 442.361 317.314 442.868 318.391C443.202 317.908 443.635 317.519 444.167 317.222C444.705 316.925 445.339 316.776 446.069 316.776C448.271 316.776 449.39 317.942 449.427 320.274V327H447.711V320.376C447.711 319.659 447.547 319.124 447.219 318.771C446.891 318.412 446.341 318.233 445.568 318.233C444.931 318.233 444.402 318.425 443.981 318.808C443.561 319.185 443.317 319.696 443.249 320.339V327H441.523V320.422C441.523 318.963 440.809 318.233 439.38 318.233C438.254 318.233 437.484 318.712 437.07 319.671V327H435.354V316.962H436.977ZM451.57 321.888C451.57 320.905 451.762 320.02 452.146 319.235C452.535 318.449 453.073 317.843 453.76 317.417C454.452 316.99 455.241 316.776 456.125 316.776C457.492 316.776 458.596 317.25 459.438 318.196C460.285 319.142 460.708 320.401 460.708 321.972V322.092C460.708 323.069 460.52 323.948 460.143 324.727C459.771 325.5 459.236 326.103 458.538 326.536C457.845 326.969 457.047 327.186 456.144 327.186C454.783 327.186 453.679 326.712 452.832 325.766C451.991 324.82 451.57 323.567 451.57 322.009V321.888ZM453.296 322.092C453.296 323.206 453.553 324.099 454.066 324.773C454.585 325.448 455.278 325.785 456.144 325.785C457.016 325.785 457.709 325.444 458.222 324.764C458.736 324.078 458.992 323.119 458.992 321.888C458.992 320.787 458.729 319.897 458.204 319.216C457.684 318.53 456.991 318.187 456.125 318.187C455.278 318.187 454.595 318.524 454.075 319.198C453.556 319.872 453.296 320.837 453.296 322.092ZM462.443 321.897C462.443 320.357 462.808 319.12 463.538 318.187C464.268 317.246 465.223 316.776 466.405 316.776C467.58 316.776 468.511 317.178 469.197 317.982V312.75H470.914V327H469.336L469.253 325.924C468.566 326.765 467.611 327.186 466.386 327.186C465.223 327.186 464.274 326.709 463.538 325.757C462.808 324.804 462.443 323.561 462.443 322.027V321.897ZM464.16 322.092C464.16 323.23 464.395 324.121 464.865 324.764C465.335 325.407 465.984 325.729 466.813 325.729C467.902 325.729 468.696 325.24 469.197 324.263V319.652C468.684 318.706 467.895 318.233 466.832 318.233C465.99 318.233 465.335 318.558 464.865 319.207C464.395 319.856 464.16 320.818 464.16 322.092ZM477.751 327.186C476.39 327.186 475.283 326.74 474.43 325.85C473.576 324.953 473.149 323.756 473.149 322.259V321.944C473.149 320.948 473.338 320.061 473.715 319.281C474.099 318.496 474.631 317.883 475.311 317.444C475.998 316.999 476.74 316.776 477.538 316.776C478.843 316.776 479.857 317.206 480.581 318.066C481.304 318.926 481.666 320.156 481.666 321.758V322.473H474.866C474.89 323.462 475.178 324.263 475.729 324.875C476.285 325.482 476.99 325.785 477.844 325.785C478.45 325.785 478.963 325.661 479.384 325.414C479.804 325.166 480.172 324.838 480.488 324.43L481.536 325.247C480.695 326.539 479.433 327.186 477.751 327.186ZM477.538 318.187C476.845 318.187 476.264 318.44 475.793 318.947C475.323 319.448 475.033 320.153 474.921 321.062H479.95V320.933C479.9 320.061 479.665 319.386 479.245 318.91C478.824 318.428 478.255 318.187 477.538 318.187ZM488.513 318.502C488.253 318.459 487.972 318.437 487.668 318.437C486.543 318.437 485.779 318.916 485.377 319.875V327H483.661V316.962H485.331L485.358 318.122C485.921 317.225 486.719 316.776 487.752 316.776C488.086 316.776 488.34 316.82 488.513 316.906V318.502ZM491.723 316.962L491.778 318.224C492.545 317.259 493.547 316.776 494.784 316.776C496.906 316.776 497.976 317.973 497.994 320.367V327H496.278V320.357C496.272 319.634 496.105 319.099 495.777 318.752C495.455 318.406 494.951 318.233 494.265 318.233C493.708 318.233 493.219 318.381 492.799 318.678C492.378 318.975 492.05 319.365 491.815 319.847V327H490.099V316.962H491.723ZM500.527 329.69L499.553 329.022C500.134 328.212 500.437 327.377 500.462 326.518V324.968H502.141V326.313C502.141 326.938 501.986 327.563 501.677 328.188C501.374 328.812 500.991 329.313 500.527 329.69ZM170.086 347.092C170.086 348.626 169.734 349.86 169.029 350.794C168.324 351.722 167.377 352.186 166.19 352.186C164.922 352.186 163.942 351.737 163.249 350.84L163.166 352H161.588V337.75H163.305V343.066C163.997 342.206 164.953 341.776 166.171 341.776C167.39 341.776 168.345 342.237 169.038 343.159C169.737 344.08 170.086 345.342 170.086 346.944V347.092ZM168.37 346.897C168.37 345.729 168.144 344.826 167.693 344.188C167.241 343.551 166.592 343.233 165.745 343.233C164.613 343.233 163.799 343.759 163.305 344.81V349.152C163.83 350.203 164.65 350.729 165.763 350.729C166.586 350.729 167.226 350.41 167.684 349.773C168.141 349.136 168.37 348.178 168.37 346.897ZM176.423 352.186C175.062 352.186 173.955 351.74 173.102 350.85C172.248 349.953 171.821 348.756 171.821 347.259V346.944C171.821 345.948 172.01 345.061 172.387 344.281C172.771 343.496 173.303 342.883 173.983 342.444C174.669 341.999 175.412 341.776 176.209 341.776C177.514 341.776 178.529 342.206 179.252 343.066C179.976 343.926 180.338 345.156 180.338 346.758V347.473H173.538C173.562 348.462 173.85 349.263 174.4 349.875C174.957 350.482 175.662 350.785 176.516 350.785C177.122 350.785 177.635 350.661 178.056 350.414C178.476 350.166 178.844 349.838 179.16 349.43L180.208 350.247C179.367 351.539 178.105 352.186 176.423 352.186ZM176.209 343.187C175.517 343.187 174.935 343.44 174.465 343.947C173.995 344.448 173.705 345.153 173.593 346.062H178.622V345.933C178.572 345.061 178.337 344.386 177.917 343.91C177.496 343.428 176.927 343.187 176.209 343.187ZM188.53 352C188.431 351.802 188.35 351.45 188.289 350.942C187.491 351.771 186.538 352.186 185.431 352.186C184.442 352.186 183.628 351.907 182.991 351.351C182.36 350.788 182.045 350.076 182.045 349.217C182.045 348.172 182.441 347.361 183.232 346.786C184.03 346.205 185.15 345.914 186.591 345.914H188.261V345.125C188.261 344.526 188.081 344.049 187.723 343.697C187.364 343.338 186.835 343.159 186.136 343.159C185.524 343.159 185.011 343.313 184.596 343.623C184.182 343.932 183.975 344.306 183.975 344.745H182.249C182.249 344.244 182.425 343.762 182.778 343.298C183.137 342.828 183.619 342.457 184.225 342.185C184.837 341.912 185.508 341.776 186.238 341.776C187.395 341.776 188.301 342.067 188.957 342.648C189.612 343.224 189.952 344.018 189.977 345.033V349.653C189.977 350.574 190.095 351.307 190.33 351.852V352H188.53ZM185.682 350.692C186.22 350.692 186.73 350.553 187.212 350.274C187.695 349.996 188.044 349.634 188.261 349.189V347.129H186.916C184.813 347.129 183.761 347.745 183.761 348.976C183.761 349.514 183.941 349.934 184.299 350.237C184.658 350.54 185.119 350.692 185.682 350.692ZM198.865 351.007C198.197 351.793 197.216 352.186 195.924 352.186C194.854 352.186 194.037 351.876 193.475 351.258C192.918 350.633 192.637 349.712 192.63 348.493V341.962H194.347V348.447C194.347 349.968 194.965 350.729 196.202 350.729C197.513 350.729 198.385 350.24 198.818 349.263V341.962H200.535V352H198.902L198.865 351.007ZM205.479 339.531V341.962H207.354V343.289H205.479V349.514C205.479 349.916 205.563 350.219 205.73 350.423C205.897 350.621 206.181 350.72 206.583 350.72C206.781 350.72 207.054 350.683 207.4 350.608V352C206.948 352.124 206.509 352.186 206.083 352.186C205.316 352.186 204.737 351.954 204.348 351.49C203.958 351.026 203.763 350.367 203.763 349.514V343.289H201.936V341.962H203.763V339.531H205.479ZM211.231 352H209.515V341.962H211.231V352ZM209.376 339.299C209.376 339.021 209.459 338.786 209.626 338.594C209.8 338.403 210.053 338.307 210.387 338.307C210.721 338.307 210.975 338.403 211.148 338.594C211.321 338.786 211.408 339.021 211.408 339.299C211.408 339.578 211.321 339.81 211.148 339.995C210.975 340.181 210.721 340.273 210.387 340.273C210.053 340.273 209.8 340.181 209.626 339.995C209.459 339.81 209.376 339.578 209.376 339.299ZM214.831 352V343.289H213.245V341.962H214.831V340.932C214.831 339.856 215.119 339.024 215.694 338.437C216.269 337.849 217.082 337.555 218.134 337.555C218.53 337.555 218.922 337.608 219.312 337.713L219.219 339.104C218.929 339.049 218.619 339.021 218.292 339.021C217.735 339.021 217.305 339.185 217.002 339.513C216.699 339.834 216.547 340.298 216.547 340.904V341.962H218.69V343.289H216.547V352H214.831ZM226.79 351.007C226.122 351.793 225.141 352.186 223.849 352.186C222.779 352.186 221.962 351.876 221.399 351.258C220.843 350.633 220.561 349.712 220.555 348.493V341.962H222.271V348.447C222.271 349.968 222.89 350.729 224.127 350.729C225.438 350.729 226.31 350.24 226.743 349.263V341.962H228.459V352H226.827L226.79 351.007ZM232.94 352H231.224V337.75H232.94V352ZM235.64 354.69L234.666 354.022C235.247 353.212 235.55 352.377 235.575 351.518V349.968H237.254V351.313C237.254 351.938 237.1 352.563 236.791 353.188C236.487 353.812 236.104 354.313 235.64 354.69ZM248.99 343.502C248.73 343.459 248.449 343.437 248.146 343.437C247.02 343.437 246.257 343.916 245.854 344.875V352H244.138V341.962H245.808L245.836 343.122C246.399 342.225 247.197 341.776 248.229 341.776C248.563 341.776 248.817 341.82 248.99 341.906V343.502ZM254.557 352.186C253.196 352.186 252.089 351.74 251.235 350.85C250.382 349.953 249.955 348.756 249.955 347.259V346.944C249.955 345.948 250.144 345.061 250.521 344.281C250.904 343.496 251.436 342.883 252.117 342.444C252.803 341.999 253.545 341.776 254.343 341.776C255.648 341.776 256.663 342.206 257.386 343.066C258.11 343.926 258.472 345.156 258.472 346.758V347.473H251.671C251.696 348.462 251.984 349.263 252.534 349.875C253.091 350.482 253.796 350.785 254.649 350.785C255.256 350.785 255.769 350.661 256.189 350.414C256.61 350.166 256.978 349.838 257.293 349.43L258.342 350.247C257.501 351.539 256.239 352.186 254.557 352.186ZM254.343 343.187C253.651 343.187 253.069 343.44 252.599 343.947C252.129 344.448 251.838 345.153 251.727 346.062H256.755V345.933C256.706 345.061 256.471 344.386 256.05 343.91C255.63 343.428 255.061 343.187 254.343 343.187ZM266.311 349.337C266.311 348.874 266.135 348.515 265.782 348.261C265.436 348.001 264.827 347.779 263.955 347.593C263.089 347.408 262.399 347.185 261.886 346.925C261.379 346.666 261.001 346.356 260.754 345.998C260.513 345.639 260.392 345.212 260.392 344.717C260.392 343.895 260.738 343.199 261.431 342.63C262.13 342.061 263.021 341.776 264.103 341.776C265.241 341.776 266.163 342.07 266.868 342.658C267.579 343.245 267.935 343.997 267.935 344.912H266.209C266.209 344.442 266.008 344.037 265.606 343.697C265.21 343.357 264.709 343.187 264.103 343.187C263.478 343.187 262.99 343.323 262.637 343.595C262.285 343.867 262.108 344.222 262.108 344.662C262.108 345.076 262.272 345.388 262.6 345.599C262.928 345.809 263.519 346.01 264.372 346.202C265.232 346.393 265.928 346.622 266.459 346.888C266.991 347.154 267.384 347.476 267.638 347.853C267.897 348.224 268.027 348.679 268.027 349.217C268.027 350.114 267.669 350.834 266.951 351.378C266.234 351.917 265.303 352.186 264.159 352.186C263.355 352.186 262.643 352.043 262.025 351.759C261.406 351.474 260.921 351.078 260.568 350.571C260.222 350.058 260.049 349.504 260.049 348.911H261.765C261.796 349.486 262.025 349.944 262.452 350.284C262.885 350.618 263.454 350.785 264.159 350.785C264.808 350.785 265.328 350.655 265.717 350.395C266.113 350.129 266.311 349.777 266.311 349.337ZM278.743 347.092C278.743 348.62 278.393 349.851 277.694 350.785C276.995 351.719 276.049 352.186 274.855 352.186C273.637 352.186 272.678 351.799 271.979 351.026V355.859H270.263V341.962H271.831L271.915 343.075C272.613 342.209 273.584 341.776 274.828 341.776C276.034 341.776 276.986 342.231 277.685 343.14C278.39 344.049 278.743 345.314 278.743 346.935V347.092ZM277.026 346.897C277.026 345.766 276.785 344.872 276.303 344.216C275.82 343.561 275.159 343.233 274.317 343.233C273.278 343.233 272.499 343.694 271.979 344.615V349.412C272.493 350.327 273.278 350.785 274.336 350.785C275.159 350.785 275.811 350.46 276.293 349.811C276.782 349.155 277.026 348.184 277.026 346.897ZM280.478 346.888C280.478 345.905 280.669 345.02 281.053 344.235C281.442 343.449 281.98 342.843 282.667 342.417C283.36 341.99 284.148 341.776 285.033 341.776C286.4 341.776 287.504 342.25 288.345 343.196C289.192 344.142 289.616 345.401 289.616 346.972V347.092C289.616 348.069 289.427 348.948 289.05 349.727C288.679 350.5 288.144 351.103 287.445 351.536C286.752 351.969 285.954 352.186 285.051 352.186C283.691 352.186 282.587 351.712 281.739 350.766C280.898 349.82 280.478 348.567 280.478 347.009V346.888ZM282.203 347.092C282.203 348.206 282.46 349.099 282.973 349.773C283.493 350.448 284.185 350.785 285.051 350.785C285.923 350.785 286.616 350.444 287.129 349.764C287.643 349.078 287.899 348.119 287.899 346.888C287.899 345.787 287.637 344.897 287.111 344.216C286.591 343.53 285.899 343.187 285.033 343.187C284.185 343.187 283.502 343.524 282.982 344.198C282.463 344.872 282.203 345.837 282.203 347.092ZM293.392 341.962L293.447 343.224C294.214 342.259 295.216 341.776 296.453 341.776C298.575 341.776 299.645 342.973 299.663 345.367V352H297.947V345.357C297.941 344.634 297.774 344.099 297.446 343.752C297.124 343.406 296.62 343.233 295.934 343.233C295.377 343.233 294.888 343.381 294.468 343.678C294.047 343.975 293.719 344.365 293.484 344.847V352H291.768V341.962H293.392ZM308.096 349.337C308.096 348.874 307.92 348.515 307.567 348.261C307.221 348.001 306.612 347.779 305.74 347.593C304.874 347.408 304.184 347.185 303.671 346.925C303.164 346.666 302.786 346.356 302.539 345.998C302.298 345.639 302.177 345.212 302.177 344.717C302.177 343.895 302.524 343.199 303.216 342.63C303.915 342.061 304.806 341.776 305.888 341.776C307.026 341.776 307.948 342.07 308.653 342.658C309.364 343.245 309.72 343.997 309.72 344.912H307.994C307.994 344.442 307.793 344.037 307.391 343.697C306.995 343.357 306.494 343.187 305.888 343.187C305.264 343.187 304.775 343.323 304.422 343.595C304.07 343.867 303.894 344.222 303.894 344.662C303.894 345.076 304.057 345.388 304.385 345.599C304.713 345.809 305.304 346.01 306.157 346.202C307.017 346.393 307.713 346.622 308.245 346.888C308.777 347.154 309.169 347.476 309.423 347.853C309.683 348.224 309.812 348.679 309.812 349.217C309.812 350.114 309.454 350.834 308.736 351.378C308.019 351.917 307.088 352.186 305.944 352.186C305.14 352.186 304.429 352.043 303.81 351.759C303.192 351.474 302.706 351.078 302.354 350.571C302.007 350.058 301.834 349.504 301.834 348.911H303.55C303.581 349.486 303.81 349.944 304.237 350.284C304.67 350.618 305.239 350.785 305.944 350.785C306.593 350.785 307.113 350.655 307.502 350.395C307.898 350.129 308.096 349.777 308.096 349.337ZM313.913 352H312.197V341.962H313.913V352ZM312.058 339.299C312.058 339.021 312.141 338.786 312.308 338.594C312.481 338.403 312.735 338.307 313.069 338.307C313.403 338.307 313.656 338.403 313.83 338.594C314.003 338.786 314.089 339.021 314.089 339.299C314.089 339.578 314.003 339.81 313.83 339.995C313.656 340.181 313.403 340.273 313.069 340.273C312.735 340.273 312.481 340.181 312.308 339.995C312.141 339.81 312.058 339.578 312.058 339.299ZM319.98 349.671L322.467 341.962H324.22L320.621 352H319.312L315.676 341.962H317.429L319.98 349.671ZM329.907 352.186C328.547 352.186 327.439 351.74 326.586 350.85C325.732 349.953 325.306 348.756 325.306 347.259V346.944C325.306 345.948 325.494 345.061 325.872 344.281C326.255 343.496 326.787 342.883 327.467 342.444C328.154 341.999 328.896 341.776 329.694 341.776C330.999 341.776 332.013 342.206 332.737 343.066C333.46 343.926 333.822 345.156 333.822 346.758V347.473H327.022C327.047 348.462 327.334 349.263 327.885 349.875C328.441 350.482 329.146 350.785 330 350.785C330.606 350.785 331.119 350.661 331.54 350.414C331.961 350.166 332.329 349.838 332.644 349.43L333.692 350.247C332.851 351.539 331.59 352.186 329.907 352.186ZM329.694 343.187C329.001 343.187 328.42 343.44 327.95 343.947C327.48 344.448 327.189 345.153 327.078 346.062H332.106V345.933C332.056 345.061 331.821 344.386 331.401 343.91C330.98 343.428 330.411 343.187 329.694 343.187ZM346.727 352C346.628 351.802 346.548 351.45 346.486 350.942C345.688 351.771 344.736 352.186 343.628 352.186C342.639 352.186 341.826 351.907 341.188 351.351C340.558 350.788 340.242 350.076 340.242 349.217C340.242 348.172 340.638 347.361 341.43 346.786C342.228 346.205 343.347 345.914 344.788 345.914H346.458V345.125C346.458 344.526 346.279 344.049 345.92 343.697C345.561 343.338 345.032 343.159 344.333 343.159C343.721 343.159 343.208 343.313 342.793 343.623C342.379 343.932 342.172 344.306 342.172 344.745H340.446C340.446 344.244 340.623 343.762 340.975 343.298C341.334 342.828 341.816 342.457 342.422 342.185C343.035 341.912 343.706 341.776 344.436 341.776C345.592 341.776 346.498 342.067 347.154 342.648C347.809 343.224 348.15 344.018 348.174 345.033V349.653C348.174 350.574 348.292 351.307 348.527 351.852V352H346.727ZM343.879 350.692C344.417 350.692 344.927 350.553 345.41 350.274C345.892 349.996 346.242 349.634 346.458 349.189V347.129H345.113C343.01 347.129 341.958 347.745 341.958 348.976C341.958 349.514 342.138 349.934 342.497 350.237C342.855 350.54 343.316 350.692 343.879 350.692ZM359.344 347.092C359.344 348.62 358.995 349.851 358.296 350.785C357.597 351.719 356.651 352.186 355.457 352.186C354.239 352.186 353.28 351.799 352.581 351.026V355.859H350.865V341.962H352.433L352.516 343.075C353.215 342.209 354.186 341.776 355.429 341.776C356.635 341.776 357.588 342.231 358.287 343.14C358.992 344.049 359.344 345.314 359.344 346.935V347.092ZM357.628 346.897C357.628 345.766 357.387 344.872 356.904 344.216C356.422 343.561 355.76 343.233 354.919 343.233C353.88 343.233 353.101 343.694 352.581 344.615V349.412C353.094 350.327 353.88 350.785 354.938 350.785C355.76 350.785 356.413 350.46 356.895 349.811C357.384 349.155 357.628 348.184 357.628 346.897ZM370.013 347.092C370.013 348.62 369.664 349.851 368.965 350.785C368.266 351.719 367.32 352.186 366.126 352.186C364.908 352.186 363.949 351.799 363.25 351.026V355.859H361.534V341.962H363.102L363.185 343.075C363.884 342.209 364.855 341.776 366.098 341.776C367.304 341.776 368.257 342.231 368.956 343.14C369.661 344.049 370.013 345.314 370.013 346.935V347.092ZM368.297 346.897C368.297 345.766 368.056 344.872 367.573 344.216C367.091 343.561 366.429 343.233 365.588 343.233C364.549 343.233 363.77 343.694 363.25 344.615V349.412C363.763 350.327 364.549 350.785 365.606 350.785C366.429 350.785 367.082 350.46 367.564 349.811C368.053 349.155 368.297 348.184 368.297 346.897ZM378.047 349.337C378.047 348.874 377.871 348.515 377.519 348.261C377.172 348.001 376.563 347.779 375.691 347.593C374.825 347.408 374.135 347.185 373.622 346.925C373.115 346.666 372.738 346.356 372.49 345.998C372.249 345.639 372.128 345.212 372.128 344.717C372.128 343.895 372.475 343.199 373.167 342.63C373.866 342.061 374.757 341.776 375.839 341.776C376.977 341.776 377.899 342.07 378.604 342.658C379.315 343.245 379.671 343.997 379.671 344.912H377.945C377.945 344.442 377.744 344.037 377.342 343.697C376.946 343.357 376.445 343.187 375.839 343.187C375.215 343.187 374.726 343.323 374.374 343.595C374.021 343.867 373.845 344.222 373.845 344.662C373.845 345.076 374.009 345.388 374.336 345.599C374.664 345.809 375.255 346.01 376.108 346.202C376.968 346.393 377.664 346.622 378.196 346.888C378.728 347.154 379.12 347.476 379.374 347.853C379.634 348.224 379.764 348.679 379.764 349.217C379.764 350.114 379.405 350.834 378.688 351.378C377.97 351.917 377.039 352.186 375.895 352.186C375.091 352.186 374.38 352.043 373.761 351.759C373.143 351.474 372.657 351.078 372.305 350.571C371.958 350.058 371.785 349.504 371.785 348.911H373.501C373.532 349.486 373.761 349.944 374.188 350.284C374.621 350.618 375.19 350.785 375.895 350.785C376.544 350.785 377.064 350.655 377.454 350.395C377.849 350.129 378.047 349.777 378.047 349.337ZM382.037 351.1C382.037 350.803 382.123 350.556 382.296 350.358C382.476 350.16 382.742 350.061 383.094 350.061C383.447 350.061 383.713 350.16 383.892 350.358C384.078 350.556 384.17 350.803 384.17 351.1C384.17 351.385 384.078 351.623 383.892 351.814C383.713 352.006 383.447 352.102 383.094 352.102C382.742 352.102 382.476 352.006 382.296 351.814C382.123 351.623 382.037 351.385 382.037 351.1Z" fill="white"/>
<path d="M284.717 570.329C282.851 570.329 280.986 569.785 279.393 568.65C269.519 561.75 259.782 554.35 250.454 546.724C243.765 541.276 237.167 535.602 230.751 529.791C226.974 526.341 226.656 520.485 230.114 516.717C233.572 512.949 239.442 512.631 243.219 516.081C249.362 521.665 255.732 527.113 262.193 532.378C271.203 539.687 280.576 546.814 290.041 553.488C294.227 556.438 295.228 562.204 292.316 566.38C290.541 568.968 287.675 570.329 284.717 570.329Z" fill="#14254C"/>
<path d="M310.471 571.328L285.49 547.541L270.884 565.291L302.463 580.044L310.471 571.328Z" fill="#F27043"/>
<path d="M240.215 509.272L253.866 522.845L242.172 527.521L227.748 512.767V494.11H240.215V509.272Z" fill="black"/>
<path d="M286.583 586.808L292.361 583.54C294.5 582.359 297.139 582.45 299.141 583.812L305.739 588.306C306.604 588.896 306.513 590.168 305.603 590.667L304.783 591.075C304.465 591.212 304.146 591.257 303.828 591.166L286.583 586.808Z" fill="#F27043"/>
<path d="M163.18 709.74C162.315 709.74 161.451 709.559 160.632 709.15C157.902 707.743 156.81 704.384 158.22 701.66L188.798 642.01C190.208 639.286 193.576 638.196 196.306 639.604C199.036 641.011 200.128 644.37 198.717 647.094L168.14 706.699C167.184 708.651 165.228 709.74 163.18 709.74Z" fill="#FAB16A"/>
<path d="M157.583 703.839C157.401 707.108 160.04 709.877 163.317 709.831L165.455 709.786L184.839 709.559C186.523 709.559 187.979 708.333 188.252 706.608C188.57 704.702 187.251 702.931 185.34 702.613L175.011 700.797L164.363 698.618C160.996 697.938 157.811 700.434 157.583 703.839Z" fill="#FAB16A"/>
<path d="M308 708.55C306.023 708.55 304.131 707.289 303.29 705.218L278.603 644.254C277.467 641.463 278.687 638.221 281.294 637.005C283.902 635.789 286.93 637.095 288.065 639.887L312.752 700.851C313.888 703.642 312.668 706.884 310.061 708.1C309.346 708.415 308.673 708.55 308 708.55Z" fill="#FAB16A"/>
<path d="M224.745 587.762L244.766 644.87L245.448 692.354C245.448 693.216 246.176 693.943 247.041 693.943H333.723C335.042 693.943 335.77 692.49 335.042 691.4L292.179 629.798L242.809 582.405L224.745 587.762Z" fill="black"/>
<path d="M205.042 577.956L143.114 691.9C142.522 692.989 143.296 694.26 144.524 694.26L238.213 693.943C239.078 693.943 239.806 693.216 239.806 692.354L240.125 647.003L229.249 584.992L205.042 577.956Z" fill="black"/>
<path d="M205.133 587.308L240.989 591.575L248.087 537.372C250.499 522.164 238.714 508.409 223.289 508.409C207.863 508.409 196.078 522.164 198.49 537.372L205.133 587.308Z" fill="#F27043"/>
<path d="M244.493 574.461L202.403 570.329L204.223 585.174C205.406 594.707 213.369 601.925 222.97 602.197C232.799 602.47 241.308 595.388 242.764 585.673L244.493 574.461Z" fill="#14254C"/>
<path d="M182.655 600.064L196.943 612.729C197.534 613.274 198.49 613.138 198.945 612.457L218.602 582.723C219.102 581.996 218.738 580.952 217.874 580.725L207.59 577.593C207.135 577.457 206.68 577.547 206.316 577.865L182.655 598.066C182.064 598.566 182.064 599.519 182.655 600.064Z" fill="#14254C"/>
<path d="M255.914 607.736L266.197 600.609C266.971 600.064 266.971 598.974 266.243 598.43L241.262 580.135C240.852 579.817 240.306 579.772 239.851 580.044L231.388 584.584C230.569 585.038 230.432 586.127 231.115 586.763L254.321 607.6C254.731 608.054 255.413 608.099 255.914 607.736Z" fill="#14254C"/>
<path d="M250.408 610.142L233.936 583.767L213.233 582.586C212.596 582.541 212.004 582.995 211.868 583.63L204.314 616.361L250.408 610.142Z" fill="#14254C"/>
<path d="M313.474 564.428L327.443 542.229L369.032 486.392L399.2 446.081C399.747 445.309 400.839 445.173 401.567 445.718C402.34 446.262 402.522 447.306 402.022 448.078L373.992 489.933L334.815 547.495L318.434 567.969L313.474 564.428Z" fill="#FAB16A"/>
<path d="M375.63 486.075L372.081 483.532C371.535 483.124 370.762 483.26 370.352 483.805L368.669 486.12C368.259 486.665 368.396 487.436 368.942 487.845L372.491 490.387C373.037 490.796 373.81 490.66 374.22 490.115L375.903 487.8C376.313 487.255 376.176 486.483 375.63 486.075Z" fill="black"/>
<path d="M402.613 446.262L400.611 444.855C400.156 444.537 399.474 444.628 399.155 445.082L397.472 447.443C397.153 447.897 397.244 448.578 397.699 448.895L399.701 450.303C400.156 450.62 400.839 450.53 401.157 450.076L402.841 447.715C403.205 447.261 403.068 446.625 402.613 446.262Z" fill="black"/>
<path d="M291.633 609.007L283.443 603.196L313.52 564.292L318.525 567.833L291.633 609.007Z" fill="black"/>
<path d="M327.716 570.284L308.469 556.665C308.014 556.348 307.377 556.438 307.058 556.892L305.693 558.799C305.375 559.253 305.466 559.888 305.921 560.206L325.168 573.825C325.623 574.143 326.26 574.052 326.579 573.598L327.944 571.691C328.308 571.192 328.171 570.602 327.716 570.284Z" fill="black"/>
<path d="M300.688 602.969L305.739 595.887C307.24 593.799 306.376 590.894 303.964 589.941L290.45 584.584L284.944 594.798L294.864 603.65C296.593 605.194 299.323 604.921 300.688 602.969Z" fill="#F27043"/>
<path d="M262.603 584.084C261.556 584.084 260.464 583.903 259.418 583.494C249.134 579.726 239.806 574.188 231.707 567.016C216.372 553.442 209.274 537.372 205.952 526.295C204.496 521.393 207.317 516.217 212.232 514.765C217.146 513.312 222.333 516.127 223.789 521.029C226.383 529.791 232.025 542.502 244.083 553.17C250.454 558.799 257.78 563.157 265.879 566.108C270.702 567.878 273.159 573.189 271.385 578.001C269.929 581.724 266.379 584.084 262.603 584.084Z" fill="#0C1B38"/>
<path d="M294.227 584.538L267.517 563.702L252.183 584.538L289.904 596.296L294.227 584.538Z" fill="#F27043"/>
<path d="M232.025 509.227L213.324 525.569L190.709 516.626L203.404 506.503C205.224 505.05 206.271 502.826 206.271 500.511V489.025H231.98V509.227H232.025Z" fill="black"/>
<path fill-rule="evenodd" clip-rule="evenodd" d="M212.505 468.688C205.679 465.147 202.085 461.061 200.082 457.838C197.762 454.116 196.988 450.711 193.485 449.213C191.301 448.305 189.89 448.895 185.476 448.85C181.381 448.805 178.059 448.214 175.784 447.715C175.557 449.304 175.375 450.938 175.147 452.527C177.24 453.208 180.289 453.889 183.929 453.662C187.797 453.435 189.298 452.345 191.574 453.163C194.668 454.252 195.35 457.475 197.17 460.29C199.218 463.422 203.359 466.963 212.505 468.688Z" fill="#F27043"/>
<path fill-rule="evenodd" clip-rule="evenodd" d="M212.914 468.461C205.224 468.189 200.219 465.964 197.034 463.921C193.576 461.697 191.619 459.473 187.342 458.928C184.248 458.519 182.837 459.473 179.061 459.109C175.557 458.792 172.736 457.657 170.916 456.703C170.597 458.428 170.233 460.154 169.915 461.924C171.644 462.65 174.328 463.513 177.695 463.694C182.064 463.921 183.793 462.741 187.342 463.286C191.119 463.876 192.666 465.646 195.441 467.326C198.672 469.323 203.905 470.776 212.914 468.461Z" fill="#F27043"/>
<path fill-rule="evenodd" clip-rule="evenodd" d="M213.915 460.789H220.968C231.707 460.789 240.534 469.46 240.534 480.309V495.608C240.534 502.463 234.983 508.001 228.112 508.001H218.511C211.64 508.001 206.089 502.463 206.089 495.608V468.552C206.134 464.239 209.684 460.789 213.915 460.789Z" fill="#14254C"/>
<path fill-rule="evenodd" clip-rule="evenodd" d="M207.909 487.073C207.909 495.608 214.825 502.508 223.38 502.508C231.934 502.508 238.851 495.472 238.851 487.073C238.851 478.675 231.934 471.639 223.38 471.639C214.825 471.639 207.909 478.539 207.909 487.073Z" fill="#31475C"/>
<path fill-rule="evenodd" clip-rule="evenodd" d="M209.957 479.538C209.957 479.492 209.957 479.447 209.957 479.401C212.641 474.771 217.601 471.639 223.38 471.639C229.159 471.639 234.118 474.816 236.803 479.447C236.803 479.492 236.803 479.492 236.803 479.538V494.7C234.118 499.33 229.159 502.508 223.38 502.508C217.601 502.508 212.596 499.376 209.957 494.745V479.538Z" fill="#FAB16A"/>
<path fill-rule="evenodd" clip-rule="evenodd" d="M229.75 490.75H222.743V478.63L229.75 490.75Z" fill="#DC7F1B"/>
<path d="M238.851 477.495H206.771V475.951H238.851V477.495Z" fill="#14254C"/>
<path d="M238.851 484.531H206.771V482.988H238.851V484.531Z" fill="#14254C"/>
<path d="M238.851 498.559H208.683V496.879H238.851V498.559Z" fill="#14254C"/>
<path d="M238.851 491.522H206.771V489.888H238.851V491.522Z" fill="#14254C"/>
<path d="M215.28 481.853H216.873C217.51 481.853 218.011 481.353 218.011 480.718V480.627C218.011 479.992 217.51 479.492 216.873 479.492H215.28C214.643 479.492 214.143 479.992 214.143 480.627V480.718C214.143 481.353 214.643 481.853 215.28 481.853Z" fill="white"/>
<path d="M231.161 481.853H232.753C233.39 481.853 233.891 481.353 233.891 480.718V480.627C233.891 479.992 233.39 479.492 232.753 479.492H231.161C230.524 479.492 230.023 479.992 230.023 480.627V480.718C230.069 481.353 230.569 481.853 231.161 481.853Z" fill="white"/>
<path d="M218.01 481.853C218.664 481.853 219.194 481.324 219.194 480.673C219.194 480.021 218.664 479.492 218.01 479.492C217.357 479.492 216.827 480.021 216.827 480.673C216.827 481.324 217.357 481.853 218.01 481.853Z" fill="black"/>
<path d="M233.663 481.853C234.317 481.853 234.846 481.324 234.846 480.673C234.846 480.021 234.317 479.492 233.663 479.492C233.01 479.492 232.48 480.021 232.48 480.673C232.48 481.324 233.01 481.853 233.663 481.853Z" fill="black"/>
<path d="M312.746 585.855L317.706 579C319.253 576.866 318.298 573.825 315.749 572.962L313.019 572.054C311.063 571.374 308.879 572.145 307.741 573.87L304.328 579.136C303.1 581.043 303.464 583.54 305.147 585.038L306.922 586.581C308.697 588.034 311.381 587.716 312.746 585.855Z" fill="#F27043"/>
<path d="M298.868 569.467L304.692 566.244C306.831 565.064 309.47 565.2 311.472 566.607L318.024 571.147C318.889 571.737 318.798 573.008 317.842 573.507L317.023 573.916C316.705 574.052 316.386 574.097 316.068 574.007L298.868 569.467Z" fill="#F27043"/>
<path d="M303.573 704.364C303.739 707.322 306.639 709.502 309.87 709.08L311.977 708.79L331.099 706.331C332.762 706.135 334.07 704.864 334.157 703.283C334.27 701.533 332.779 700.097 330.858 700.034L320.464 699.605L309.717 698.886C306.364 698.661 303.438 701.28 303.573 704.364Z" fill="#FAB16A"/>
</svg>
